<?xml version="1.0" encoding="utf-8"?>
<svg width="24" height="24" fill-rule="evenodd" clip-rule="evenodd" xmlns="http://www.w3.org/2000/svg">
  <defs/>
  <path d="M 21 0 L 3 0 C 1.343 0 0 1.343 0 3 L 0 21 C 0 22.657 1.343 24 3 24 L 21 24 C 22.657 24 24 22.657 24 21 L 24 3 C 24 1.343 22.657 0 21 0 M 20.517 2.483 C 21.069 2.483 21.5 2.9 21.5 3.5 L 21.5 20.5 C 21.5 21.1 21.1 21.5 20.5 21.5 L 3.5 21.5 C 2.9 21.5 2.5 21.1 2.5 20.5 L 2.5 3.5 C 2.5 2.9 2.9 2.5 3.5 2.5 L 20.509 2.483 L 20.5 2.5 L 20.517 2.483 Z" style=""/>
</svg>